<?xml version="1.0" encoding="utf-8"?>
<!-- Generator: Adobe Illustrator 21.0.1, SVG Export Plug-In . SVG Version: 6.00 Build 0)  -->
<svg version="1.1" id="Layer_1" xmlns="http://www.w3.org/2000/svg" xmlns:xlink="http://www.w3.org/1999/xlink" x="0px" y="0px"
	 viewBox="0 0 426 120" style="enable-background:new 0 0 426 120;" xml:space="preserve">
<style type="text/css">
	.st0{fill:#222222;}
</style>
<g>
	<g>
		<path class="st0" d="M59.8,51.6c-1.4,0-2.3,0.5-3,1.5c-0.8,1.1-1.1,2.8-1.1,5c0,2.1,0.4,3.7,1.1,4.7c0.7,1,1.7,1.4,3,1.4
			c1.3,0,2.4-0.5,3.2-1.5c0.9-1,1.3-2.6,1.3-4.8c0-2.2-0.5-3.8-1.4-4.8C62,52.1,60.9,51.6,59.8,51.6z M51.4,31.7
			C38.9,35.3,28.6,75.6,37.2,85s50-1,53.3-14.3C93.7,57.5,64,28.1,51.4,31.7z M67,65.9c-0.9,1-1.9,1.7-3,2.2
			c-1.1,0.5-2.4,0.8-3.8,0.8c-1.8,0-3.3-0.4-4.7-1.2c0,1.1-0.1,3,5.6,3.3c1.6,0.1,2.6,0.2,4.3,0.4c0,0,0.7,0.1,1,0.3
			c-0.6,2.4-1.4,4.4-3.7,4.1c-0.9-0.1-1.6-0.1-1.8-0.1c-8.8,0-10.7-4.4-10.7-8.1v-9.6c0-9.3,5.2-11.3,9.5-11.3c2.9,0,5.3,1,7.2,3.1
			c1.8,2,2.7,4.7,2.7,8C69.6,61.3,68.7,63.9,67,65.9z M218.8,52.5c-0.9-1.3-2.1-2.3-3.6-3.1c-1.5-0.8-3.2-1.2-5.2-1.2
			c-1.4,0-2.9,0.3-4.2,0.9c-1.4,0.6-2.6,1.5-3.6,2.6c-1,1.2-1.9,2.6-2.5,4.3c-0.6,1.7-1,3.6-1,5.8c0,1.9,0.2,3.7,0.7,5.4
			c0.4,1.7,1.1,3.1,2,4.3s2.1,2.2,3.5,2.8c1.4,0.7,3.2,1,5.2,1c3,0,5.4-0.8,7.5-2.5c2-1.7,3.2-4,3.6-7h-1c-0.4,2.9-1.6,5-3.4,6.4
			c-1.8,1.4-4.1,2.1-6.8,2.1c-1.8,0-3.4-0.3-4.7-1c-1.3-0.6-2.3-1.5-3.1-2.6c-0.8-1.1-1.4-2.4-1.8-3.9c-0.4-1.5-0.6-3.1-0.6-4.9v0
			h21.7c0.1-1.8-0.1-3.5-0.5-5.1C220.4,55.3,219.7,53.8,218.8,52.5z M199.6,61.1c0.1-1.8,0.4-3.4,1-4.9c0.6-1.4,1.3-2.7,2.2-3.7
			c0.9-1,2-1.8,3.2-2.3c1.2-0.5,2.5-0.8,4-0.8c1.7,0,3.2,0.3,4.4,0.9c1.3,0.6,2.3,1.5,3.2,2.5c0.9,1.1,1.5,2.3,1.9,3.8
			c0.4,1.4,0.7,2.9,0.7,4.5H199.6z M187.6,73.8h-0.1l-10.3-25.5l-0.8,0c0,0-0.1,0-0.1,0l-0.3,0l0,0c-0.1,0-0.3,0-0.4,0c0,0,0,0,0,0
			c-0.4,0-0.8,0.1-1.1,0.1c0,0-0.1,0-0.1,0c-0.1,0-0.2,0-0.2,0c-0.1,0-0.1,0-0.2,0c-0.1,0-0.1,0-0.2,0c-0.1,0-0.2,0-0.3,0.1
			c-0.1,0-0.1,0-0.2,0c-0.1,0-0.3,0.1-0.4,0.1c-1.2,0.4-2.2,0.9-3,1.5c-0.8,0.6-1.5,1.4-2,2.2s-0.9,1.8-1.1,2.7h-0.1v-6.4h-1v25.9h1
			V60.2c0-1.4,0.2-2.8,0.6-4.1s1-2.5,1.9-3.6c0.8-1,1.9-1.8,3.2-2.4c0.1,0,0.2-0.1,0.2-0.1c0,0,0.1,0,0.1,0c0.1,0,0.1,0,0.2-0.1
			c0,0,0.1,0,0.1,0c0,0,0.1,0,0.1,0c0,0,0.1,0,0.1,0c0,0,0.1,0,0.1,0c0,0,0.1,0,0.1,0c0,0,0.1,0,0.1,0c0,0,0.1,0,0.1,0
			c0,0,0.1,0,0.1,0c0.1,0,0.1,0,0.2,0c0,0,0.1,0,0.1,0c0.1,0,0.1,0,0.2,0c0,0,0,0,0,0c0.6-0.1,1.2-0.2,1.9-0.2h0c0.1,0,0.2,0,0.3,0
			l10.5,25.5h1.3l10-26.5h-1.1L187.6,73.8z M133,63.3c-0.8-0.5-1.7-0.9-2.7-1.2c-1-0.3-2-0.6-3-0.8c-1.4-0.4-2.6-0.7-3.7-1
			s-2-0.6-2.9-1c-0.9-0.4-1.6-0.9-2.1-1.6c-0.5-0.7-0.8-1.7-0.8-3c0-0.2,0.1-0.7,0.2-1.3c0.1-0.6,0.5-1.2,1-1.8
			c0.5-0.6,1.3-1.2,2.3-1.7c1-0.5,2.5-0.7,4.3-0.7c1.2,0,2.4,0.1,3.4,0.4c1,0.3,1.9,0.7,2.6,1.3c0.7,0.6,1.3,1.3,1.7,2.2
			c0.4,0.9,0.6,2,0.6,3.3h1c0-2.9-0.8-5-2.5-6.3c-1.7-1.3-4-2-6.9-2c-1.6,0-3,0.2-4.1,0.6c-1.1,0.4-2,0.9-2.7,1.6s-1.2,1.3-1.5,2.1
			c-0.3,0.8-0.5,1.5-0.5,2.2c0,1.4,0.3,2.5,0.8,3.4c0.5,0.8,1.3,1.5,2.4,2c0.7,0.3,1.6,0.6,2.5,0.9c0.9,0.3,2,0.6,3.3,0.9
			c1.1,0.3,2.2,0.5,3.3,0.8c1.1,0.3,2,0.6,2.9,1.1c0.8,0.5,1.5,1,2,1.7s0.8,1.6,0.8,2.8c0,1.1-0.3,2.1-0.8,2.8
			c-0.5,0.8-1.2,1.4-2,1.9s-1.7,0.8-2.7,1.1c-1,0.2-2,0.3-2.9,0.3c-3.1,0-5.4-0.7-7-2c-1.6-1.4-2.4-3.5-2.4-6.4h-1
			c0,3.3,0.9,5.6,2.6,7.2s4.4,2.3,7.8,2.3c1.1,0,2.2-0.1,3.4-0.4c1.1-0.3,2.1-0.7,3-1.2c0.9-0.6,1.6-1.3,2.2-2.2
			c0.6-0.9,0.8-2,0.8-3.3c0-1.2-0.2-2.3-0.7-3C134.5,64.4,133.8,63.8,133,63.3z M159.1,52.5c-0.9-1.3-2.1-2.3-3.6-3.1
			s-3.2-1.2-5.2-1.2c-1.4,0-2.9,0.3-4.2,0.9c-1.4,0.6-2.6,1.5-3.6,2.6c-1,1.2-1.9,2.6-2.5,4.3c-0.6,1.7-1,3.6-1,5.8
			c0,1.9,0.2,3.7,0.7,5.4c0.4,1.7,1.1,3.1,2,4.3s2.1,2.2,3.5,2.8c1.4,0.7,3.2,1,5.2,1c3,0,5.4-0.8,7.5-2.5c2-1.7,3.2-4,3.6-7h-1
			c-0.4,2.9-1.6,5-3.4,6.4c-1.8,1.4-4.1,2.1-6.8,2.1c-1.9,0-3.4-0.3-4.7-1c-1.3-0.6-2.3-1.5-3.1-2.6c-0.8-1.1-1.4-2.4-1.8-3.9
			c-0.4-1.5-0.6-3.1-0.6-4.9v0h21.7c0.1-1.8-0.1-3.5-0.5-5.1C160.6,55.3,160,53.8,159.1,52.5z M139.9,61.1c0.1-1.8,0.4-3.4,1-4.9
			c0.6-1.4,1.3-2.7,2.2-3.7c0.9-1,2-1.8,3.2-2.3c1.2-0.5,2.5-0.8,4-0.8c1.7,0,3.2,0.3,4.4,0.9c1.3,0.6,2.3,1.5,3.2,2.5
			c0.9,1.1,1.5,2.3,1.9,3.8c0.4,1.4,0.7,2.9,0.7,4.5H139.9z M346.4,74.8h7V47.7h-7V74.8z M346.4,44.4h7v-6h-7V44.4z M385,47.7
			l-3.5,18.8h-0.1l-4-18.8h-11.1v-9.3h-7v9.3h-3.5v4.7h3.5V68c0,1.4,0.1,2.5,0.3,3.4c0.2,0.9,0.5,1.6,0.9,2.2c0.5,0.6,1.1,0.9,2,1.1
			c0.9,0.2,2,0.3,3.3,0.3c0.8,0,1.6,0,2.3-0.1c0.7-0.1,1.5-0.1,2.2-0.1V70c-0.2,0-0.5,0.1-0.8,0.1c-0.3,0-0.5,0-0.8,0
			c-1,0-1.7-0.2-2-0.7c-0.3-0.5-0.5-1.2-0.5-2.3V52.4h5.2l6.3,22.4c-0.1,1.1-0.4,2-1,2.7c-0.6,0.7-1.5,1-2.7,1
			c-0.6,0-1.2-0.1-1.8-0.2v5.2h2.8c1.6,0,3-0.1,4-0.4s2-0.7,2.7-1.5c0.8-0.8,1.4-1.8,2-3.2c0.6-1.4,1.1-3.2,1.7-5.5l6.6-25.3
			L385,47.7L385,47.7z M229.6,50.3c-0.8,0.6-1.5,1.4-2,2.2s-0.9,1.8-1.1,2.7h-0.1v-6.4h-1v25.9h1V60.2c0-1.4,0.2-2.8,0.6-4.1
			c0.4-1.3,1-2.5,1.9-3.6c0.8-1,1.9-1.8,3.2-2.4c1.3-0.6,2.8-0.8,4.6-0.7v-1c-1.5,0-2.9,0.1-4.1,0.5
			C231.4,49.2,230.4,49.7,229.6,50.3z M337.2,59.3l-4.2-1.4c-1.2-0.4-2-0.8-2.4-1.4c-0.4-0.5-0.6-1.1-0.6-1.8c0-1,0.3-1.7,1-2.2
			c0.7-0.5,1.4-0.7,2.3-0.7c1.1,0,1.9,0.3,2.4,1c0.5,0.7,0.7,1.7,0.7,3.1h6.3v-1.1c0-2.5-0.8-4.4-2.3-5.7c-1.5-1.3-3.9-2-7-2
			c-1.8,0-3.3,0.2-4.6,0.7c-1.3,0.4-2.3,1-3.1,1.8c-0.8,0.7-1.4,1.6-1.8,2.6c-0.4,1-0.6,2-0.6,3.2c0,1.9,0.5,3.5,1.5,4.7
			c1,1.2,2.4,2.2,4.3,2.8l4.9,1.8c0.7,0.3,1.3,0.6,1.8,1.1c0.5,0.5,0.8,1.1,0.8,2c0,1.1-0.3,1.9-1,2.4c-0.6,0.5-1.5,0.8-2.6,0.8
			c-1.2,0-2.1-0.4-2.7-1.1c-0.6-0.7-0.9-1.7-0.9-2.8V66h-6.3v1c0,1.3,0.2,2.5,0.5,3.6s0.8,2,1.6,2.7s1.8,1.3,3.1,1.7
			c1.3,0.4,2.9,0.6,4.9,0.6c1.5,0,2.8-0.2,4.1-0.5s2.3-0.8,3.2-1.5c0.9-0.7,1.6-1.6,2.1-2.6c0.5-1.1,0.8-2.3,0.8-3.8
			c0-2.1-0.5-3.7-1.4-4.9C340.9,61,339.3,60,337.2,59.3z M313.2,47c-1.5,0-2.9,0.3-4,0.9c-1.2,0.6-2.1,1.6-2.9,3h-0.1v-3.2h-6.7
			v27.1h7v-18c0-3,1.2-4.5,3.7-4.5c1,0,1.8,0.3,2.3,0.8c0.5,0.6,0.7,1.5,0.7,3h0v18.7h7V54.7c0-2.7-0.6-4.7-1.8-5.9
			C317.1,47.6,315.4,47,313.2,47z M265.6,50.2h-0.1c-0.7-1.1-1.6-1.9-2.5-2.4c-0.9-0.5-2-0.8-3.4-0.8c-2.9,0-5,1.1-6.3,3.4
			c-1.3,2.2-2,5.9-2,10.9s0.7,8.7,2,10.8c1.3,2.2,3.4,3.3,6.3,3.3c1.4,0,2.6-0.3,3.6-0.8c1-0.5,1.8-1.4,2.6-2.7h0.1v2.9h6.7V38.4h-7
			L265.6,50.2L265.6,50.2z M264.9,68c-0.5,1.5-1.5,2.2-3,2.2c-1.5,0-2.5-0.7-3-2.2s-0.7-3.7-0.7-6.7c0-3,0.2-5.2,0.7-6.7
			c0.5-1.5,1.4-2.2,3-2.2c1.5,0,2.5,0.7,3,2.2c0.5,1.5,0.7,3.7,0.7,6.7C265.6,64.2,265.4,66.5,264.9,68z M294.5,50.8
			c-0.7-1.2-1.8-2.1-3.1-2.8c-1.3-0.7-3-1-5-1c-2.4,0-4.2,0.4-5.6,1.2c-1.4,0.8-2.5,1.8-3.3,3.1c-0.8,1.3-1.3,2.8-1.5,4.5
			c-0.3,1.7-0.4,3.4-0.4,5.2c0,1.7,0.1,3.4,0.2,5.1c0.2,1.7,0.6,3.3,1.2,4.6c0.7,1.4,1.7,2.5,3.1,3.3c1.4,0.8,3.4,1.3,5.9,1.3
			c3.3,0,5.8-0.8,7.3-2.5c1.5-1.6,2.4-4.1,2.5-7.2h-6.3c-0.2,1.7-0.6,3-1.1,3.8c-0.5,0.8-1.4,1.3-2.6,1.3c-0.6,0-1.2-0.2-1.6-0.5
			c-0.4-0.4-0.8-0.8-1.1-1.4c-0.3-0.6-0.5-1.3-0.6-2c-0.1-0.8-0.2-1.5-0.2-2.3v-2.2h13.8v-1.6c0-2.1-0.1-4-0.4-5.7
			C295.7,53.4,295.2,52,294.5,50.8z M282.6,58.2v-1.1c0-0.6,0.1-1.3,0.2-1.9c0.1-0.6,0.3-1.2,0.6-1.7c0.3-0.5,0.6-0.9,1.1-1.3
			c0.5-0.3,1-0.5,1.7-0.5s1.3,0.1,1.7,0.4c0.5,0.3,0.8,0.7,1.1,1.3c0.3,0.6,0.4,1.2,0.5,2c0.1,0.8,0.2,1.7,0.2,2.7H282.6z"/>
	</g>
</g>
</svg>
