<?xml version="1.0" encoding="utf-8"?>
<!-- Generator: Adobe Illustrator 21.0.1, SVG Export Plug-In . SVG Version: 6.00 Build 0)  -->
<svg version="1.1" id="Layer_1" xmlns="http://www.w3.org/2000/svg" xmlns:xlink="http://www.w3.org/1999/xlink" x="0px" y="0px"
	 viewBox="0 0 126 120" style="enable-background:new 0 0 126 120;" xml:space="preserve">
<style type="text/css">
	.st0{fill:#222222;}
</style>
<g>
	<g>
		<path class="st0" d="M61.4,51.6c-1.4,0-2.3,0.5-3,1.5c-0.8,1.1-1.1,2.8-1.1,5c0,2.1,0.4,3.7,1.1,4.7c0.7,1,1.7,1.4,3,1.4
			c1.3,0,2.4-0.5,3.2-1.5c0.9-1,1.3-2.6,1.3-4.8c0-2.2-0.5-3.8-1.4-4.8C63.6,52.1,62.6,51.6,61.4,51.6z M53.1,31.7
			C40.5,35.3,30.3,75.6,38.8,85c8.5,9.4,50-1,53.3-14.3C95.3,57.5,65.6,28.1,53.1,31.7z M68.6,65.9c-0.9,1-1.9,1.7-3,2.2
			c-1.1,0.5-2.4,0.8-3.8,0.8c0,0,0,0-0.1,0c-1.3,0-1.5,1.9-0.2,2.1c0.3,0,0.7,0.1,1.1,0.1c1.6,0.1,2.6,0.2,4.3,0.4
			c0,0,0.7,0.1,1,0.3c-0.6,2.4-1.4,4.4-3.7,4.1c-0.9-0.1-1.6-0.1-1.8-0.1c-8.8,0-10.7-4.4-10.7-8.1v-9.6c0-9.3,5.2-11.3,9.5-11.3
			c2.9,0,5.3,1,7.2,3.1c1.8,2,2.7,4.7,2.7,8C71.3,61.3,70.4,63.9,68.6,65.9z"/>
	</g>
</g>
</svg>
